<mxfile host="app.diagrams.net" modified="2022-10-13T08:33:43.007Z" agent="5.0 (Windows NT 10.0; Win64; x64) AppleWebKit/537.36 (KHTML, like Gecko) Chrome/106.0.0.0 Safari/537.36 Edg/106.0.1370.42" etag="Vep8LIlrEI6L0wcFDNQZ" version="20.4.0" type="github">
  <diagram id="njSuFOlGxyn5PJmG5m-q" name="P치gina-1">
    <mxGraphModel dx="3556" dy="3080" grid="1" gridSize="10" guides="1" tooltips="1" connect="1" arrows="1" fold="1" page="1" pageScale="1" pageWidth="827" pageHeight="1169" math="0" shadow="0">
      <root>
        <mxCell id="0" />
        <mxCell id="1" parent="0" />
        <mxCell id="4pJF7ue7lpUlPbhgmUZr-2" value="Front-End" style="shape=module;align=left;spacingLeft=20;align=center;verticalAlign=top;jettyWidth=218;jettyHeight=48;" parent="1" vertex="1">
          <mxGeometry x="-800" y="1080" width="1513" height="400" as="geometry" />
        </mxCell>
        <mxCell id="4pJF7ue7lpUlPbhgmUZr-3" style="edgeStyle=orthogonalEdgeStyle;rounded=0;orthogonalLoop=1;jettySize=auto;html=1;dashed=1;" parent="1" edge="1">
          <mxGeometry relative="1" as="geometry">
            <mxPoint x="-226.5" y="-290" as="sourcePoint" />
            <mxPoint x="-146.5" y="-290" as="targetPoint" />
          </mxGeometry>
        </mxCell>
        <mxCell id="4pJF7ue7lpUlPbhgmUZr-6" value="Text" style="text;html=1;strokeColor=none;fillColor=none;align=center;verticalAlign=middle;whiteSpace=wrap;rounded=0;" parent="1" vertex="1">
          <mxGeometry x="160" y="120" width="60" height="30" as="geometry" />
        </mxCell>
        <mxCell id="4pJF7ue7lpUlPbhgmUZr-11" value="Mundo Origami" style="text;html=1;strokeColor=none;fillColor=none;align=center;verticalAlign=middle;whiteSpace=wrap;rounded=0;" parent="1" vertex="1">
          <mxGeometry x="-430" y="10" width="60" height="30" as="geometry" />
        </mxCell>
        <mxCell id="4pJF7ue7lpUlPbhgmUZr-12" style="edgeStyle=orthogonalEdgeStyle;rounded=0;orthogonalLoop=1;jettySize=auto;html=1;dashed=1;exitX=0;exitY=0;exitDx=390;exitDy=115;exitPerimeter=0;entryX=0;entryY=0;entryDx=0;entryDy=115;entryPerimeter=0;" parent="1" edge="1">
          <mxGeometry relative="1" as="geometry">
            <mxPoint x="243.5" y="-275" as="sourcePoint" />
            <mxPoint x="303.5" y="-275" as="targetPoint" />
          </mxGeometry>
        </mxCell>
        <mxCell id="4pJF7ue7lpUlPbhgmUZr-13" value="Autenticaci칩n" style="shape=module;align=left;spacingLeft=20;align=center;verticalAlign=top;jettyWidth=67;jettyHeight=11;" parent="1" vertex="1">
          <mxGeometry x="-417" y="1160" width="440" height="200" as="geometry" />
        </mxCell>
        <mxCell id="4pJF7ue7lpUlPbhgmUZr-14" style="edgeStyle=orthogonalEdgeStyle;rounded=0;orthogonalLoop=1;jettySize=auto;html=1;entryX=0.5;entryY=0;entryDx=0;entryDy=0;dashed=1;" parent="1" source="4pJF7ue7lpUlPbhgmUZr-15" target="4pJF7ue7lpUlPbhgmUZr-16" edge="1">
          <mxGeometry relative="1" as="geometry" />
        </mxCell>
        <mxCell id="4pJF7ue7lpUlPbhgmUZr-15" value="Registrarse" style="shape=module;align=left;spacingLeft=20;align=center;verticalAlign=top;fillColor=#f5f5f5;strokeColor=#666666;fontColor=#333333;" parent="1" vertex="1">
          <mxGeometry x="-357" y="1235" width="100" height="50" as="geometry" />
        </mxCell>
        <mxCell id="4pJF7ue7lpUlPbhgmUZr-16" value="Iniciar sesion" style="shape=module;align=left;spacingLeft=20;align=center;verticalAlign=top;fillColor=#f5f5f5;fontColor=#333333;strokeColor=#666666;" parent="1" vertex="1">
          <mxGeometry x="-177" y="1235" width="100" height="50" as="geometry" />
        </mxCell>
        <mxCell id="4pJF7ue7lpUlPbhgmUZr-17" value="Autenticaci칩n" style="shape=module;align=left;spacingLeft=20;align=center;verticalAlign=top;jettyWidth=67;jettyHeight=11;" parent="1" vertex="1">
          <mxGeometry x="33" y="1155" width="440" height="200" as="geometry" />
        </mxCell>
        <mxCell id="4pJF7ue7lpUlPbhgmUZr-18" style="edgeStyle=orthogonalEdgeStyle;rounded=0;orthogonalLoop=1;jettySize=auto;html=1;entryX=0.5;entryY=0;entryDx=0;entryDy=0;dashed=1;" parent="1" source="4pJF7ue7lpUlPbhgmUZr-19" target="4pJF7ue7lpUlPbhgmUZr-23" edge="1">
          <mxGeometry relative="1" as="geometry" />
        </mxCell>
        <mxCell id="4pJF7ue7lpUlPbhgmUZr-19" value="Ver Tutorial" style="shape=module;align=left;spacingLeft=20;align=center;verticalAlign=top;fillColor=#f5f5f5;strokeColor=#666666;fontColor=#333333;" parent="1" vertex="1">
          <mxGeometry x="213" y="1235" width="100" height="50" as="geometry" />
        </mxCell>
        <mxCell id="4pJF7ue7lpUlPbhgmUZr-20" style="edgeStyle=orthogonalEdgeStyle;rounded=0;orthogonalLoop=1;jettySize=auto;html=1;entryX=0.75;entryY=0;entryDx=0;entryDy=0;dashed=1;" parent="1" source="4pJF7ue7lpUlPbhgmUZr-21" target="4pJF7ue7lpUlPbhgmUZr-19" edge="1">
          <mxGeometry relative="1" as="geometry" />
        </mxCell>
        <mxCell id="4pJF7ue7lpUlPbhgmUZr-21" value="Inicio" style="shape=module;align=left;spacingLeft=20;align=center;verticalAlign=top;fillColor=#f5f5f5;strokeColor=#666666;fontColor=#333333;" parent="1" vertex="1">
          <mxGeometry x="83" y="1235" width="100" height="50" as="geometry" />
        </mxCell>
        <mxCell id="4pJF7ue7lpUlPbhgmUZr-22" style="edgeStyle=orthogonalEdgeStyle;rounded=0;orthogonalLoop=1;jettySize=auto;html=1;entryX=0.657;entryY=0.013;entryDx=0;entryDy=0;entryPerimeter=0;dashed=1;" parent="1" source="4pJF7ue7lpUlPbhgmUZr-16" target="4pJF7ue7lpUlPbhgmUZr-21" edge="1">
          <mxGeometry relative="1" as="geometry" />
        </mxCell>
        <mxCell id="4pJF7ue7lpUlPbhgmUZr-23" value="Salir Tutorial" style="shape=module;align=left;spacingLeft=20;align=center;verticalAlign=top;fillColor=#f5f5f5;strokeColor=#666666;fontColor=#333333;" parent="1" vertex="1">
          <mxGeometry x="343" y="1230" width="100" height="50" as="geometry" />
        </mxCell>
        <mxCell id="FZhuZUUJ5nNlcM6EinAX-2" value="" style="shape=folder;fontStyle=1;spacingTop=10;tabWidth=130;tabHeight=30;tabPosition=left;html=1;" parent="1" vertex="1">
          <mxGeometry x="-860" y="-320" width="1740" height="1310" as="geometry" />
        </mxCell>
        <mxCell id="FZhuZUUJ5nNlcM6EinAX-1" value="com.miorigami.mundoorigami" style="text;html=1;strokeColor=none;fillColor=none;align=center;verticalAlign=middle;whiteSpace=wrap;rounded=0;" parent="1" vertex="1">
          <mxGeometry x="-396.5" y="-430" width="220" height="30" as="geometry" />
        </mxCell>
        <mxCell id="FZhuZUUJ5nNlcM6EinAX-3" value="" style="shape=folder;fontStyle=1;spacingTop=10;tabWidth=130;tabHeight=30;tabPosition=left;html=1;" parent="1" vertex="1">
          <mxGeometry x="-840" y="-280" width="1710" height="1250" as="geometry" />
        </mxCell>
        <mxCell id="FZhuZUUJ5nNlcM6EinAX-12" value="" style="shape=folder;fontStyle=1;spacingTop=10;tabWidth=140;tabHeight=30;tabPosition=left;html=1;" parent="1" vertex="1">
          <mxGeometry x="-770" y="-845" width="390" height="200" as="geometry" />
        </mxCell>
        <mxCell id="FZhuZUUJ5nNlcM6EinAX-13" value="Aplicaci칩n" style="text;html=1;strokeColor=none;fillColor=none;align=center;verticalAlign=middle;whiteSpace=wrap;rounded=0;" parent="1" vertex="1">
          <mxGeometry x="-730" y="-845" width="60" height="30" as="geometry" />
        </mxCell>
        <mxCell id="FZhuZUUJ5nNlcM6EinAX-14" value="com.miorigami.mundoorigami" style="text;html=1;strokeColor=none;fillColor=none;align=center;verticalAlign=middle;whiteSpace=wrap;rounded=0;" parent="1" vertex="1">
          <mxGeometry x="-410" y="-1380" width="220" height="30" as="geometry" />
        </mxCell>
        <mxCell id="FZhuZUUJ5nNlcM6EinAX-16" value="" style="shape=folder;fontStyle=1;spacingTop=10;tabWidth=140;tabHeight=30;tabPosition=left;html=1;" parent="1" vertex="1">
          <mxGeometry x="-300" y="-845" width="390" height="200" as="geometry" />
        </mxCell>
        <mxCell id="FZhuZUUJ5nNlcM6EinAX-17" value="" style="shape=folder;fontStyle=1;spacingTop=10;tabWidth=140;tabHeight=30;tabPosition=left;html=1;" parent="1" vertex="1">
          <mxGeometry x="250" y="-815" width="390" height="200" as="geometry" />
        </mxCell>
        <mxCell id="FZhuZUUJ5nNlcM6EinAX-18" value="Base de datos" style="text;html=1;strokeColor=none;fillColor=none;align=center;verticalAlign=middle;whiteSpace=wrap;rounded=0;" parent="1" vertex="1">
          <mxGeometry x="280" y="-820" width="60" height="30" as="geometry" />
        </mxCell>
        <mxCell id="FZhuZUUJ5nNlcM6EinAX-19" value="Logica de negocio" style="text;html=1;strokeColor=none;fillColor=none;align=center;verticalAlign=middle;whiteSpace=wrap;rounded=0;" parent="1" vertex="1">
          <mxGeometry x="-250" y="-845" width="60" height="30" as="geometry" />
        </mxCell>
        <mxCell id="FZhuZUUJ5nNlcM6EinAX-20" value="" style="shape=folder;fontStyle=1;spacingTop=10;tabWidth=130;tabHeight=30;tabPosition=left;html=1;" parent="1" vertex="1">
          <mxGeometry x="-820" y="-250" width="1670" height="1200" as="geometry" />
        </mxCell>
        <mxCell id="FZhuZUUJ5nNlcM6EinAX-21" value="com" style="text;html=1;strokeColor=none;fillColor=none;align=center;verticalAlign=middle;whiteSpace=wrap;rounded=0;" parent="1" vertex="1">
          <mxGeometry x="-850" y="-320" width="60" height="30" as="geometry" />
        </mxCell>
        <mxCell id="FZhuZUUJ5nNlcM6EinAX-22" value="miorigami" style="text;html=1;strokeColor=none;fillColor=none;align=center;verticalAlign=middle;whiteSpace=wrap;rounded=0;" parent="1" vertex="1">
          <mxGeometry x="-827" y="-280" width="60" height="30" as="geometry" />
        </mxCell>
        <mxCell id="FZhuZUUJ5nNlcM6EinAX-23" value="mundoorigami" style="text;html=1;strokeColor=none;fillColor=none;align=center;verticalAlign=middle;whiteSpace=wrap;rounded=0;" parent="1" vertex="1">
          <mxGeometry x="-800" y="-250" width="60" height="30" as="geometry" />
        </mxCell>
        <mxCell id="FZhuZUUJ5nNlcM6EinAX-28" value="" style="shape=folder;fontStyle=1;spacingTop=10;tabWidth=140;tabHeight=30;tabPosition=left;html=1;" parent="1" vertex="1">
          <mxGeometry x="-750" y="70" width="390" height="200" as="geometry" />
        </mxCell>
        <mxCell id="FZhuZUUJ5nNlcM6EinAX-29" value="api ios" style="text;html=1;strokeColor=none;fillColor=none;align=center;verticalAlign=middle;whiteSpace=wrap;rounded=0;" parent="1" vertex="1">
          <mxGeometry x="-740" y="70" width="60" height="30" as="geometry" />
        </mxCell>
        <mxCell id="FZhuZUUJ5nNlcM6EinAX-30" value="" style="shape=folder;fontStyle=1;spacingTop=10;tabWidth=140;tabHeight=30;tabPosition=left;html=1;" parent="1" vertex="1">
          <mxGeometry x="-270" y="-140" width="480" height="590" as="geometry" />
        </mxCell>
        <mxCell id="FZhuZUUJ5nNlcM6EinAX-31" value="" style="shape=folder;fontStyle=1;spacingTop=10;tabWidth=140;tabHeight=30;tabPosition=left;html=1;" parent="1" vertex="1">
          <mxGeometry x="250" y="-140" width="490" height="370" as="geometry" />
        </mxCell>
        <mxCell id="FZhuZUUJ5nNlcM6EinAX-33" value="aplication" style="text;html=1;strokeColor=none;fillColor=none;align=center;verticalAlign=middle;whiteSpace=wrap;rounded=0;" parent="1" vertex="1">
          <mxGeometry x="-250" y="-140" width="60" height="30" as="geometry" />
        </mxCell>
        <mxCell id="B2iAS1njUcuaEuBR_V0X-1" value="" style="shape=folder;fontStyle=1;spacingTop=10;tabWidth=140;tabHeight=30;tabPosition=left;html=1;" vertex="1" parent="1">
          <mxGeometry x="-750" y="-140" width="340" height="180" as="geometry" />
        </mxCell>
        <mxCell id="B2iAS1njUcuaEuBR_V0X-2" value="api android" style="text;html=1;strokeColor=none;fillColor=none;align=center;verticalAlign=middle;whiteSpace=wrap;rounded=0;" vertex="1" parent="1">
          <mxGeometry x="-767" y="-140" width="90" height="30" as="geometry" />
        </mxCell>
        <mxCell id="B2iAS1njUcuaEuBR_V0X-3" value="" style="shape=folder;fontStyle=1;spacingTop=10;tabWidth=140;tabHeight=30;tabPosition=left;html=1;" vertex="1" parent="1">
          <mxGeometry x="-740" y="120" width="155" height="130" as="geometry" />
        </mxCell>
        <mxCell id="B2iAS1njUcuaEuBR_V0X-5" value="" style="shape=folder;fontStyle=1;spacingTop=10;tabWidth=140;tabHeight=30;tabPosition=left;html=1;" vertex="1" parent="1">
          <mxGeometry x="-740" y="-100" width="155" height="130" as="geometry" />
        </mxCell>
        <mxCell id="B2iAS1njUcuaEuBR_V0X-6" value="controller&lt;span style=&quot;color: rgba(0, 0, 0, 0); font-family: monospace; font-size: 0px; text-align: start;&quot;&gt;%3CmxGraphModel%3E%3Croot%3E%3CmxCell%20id%3D%220%22%2F%3E%3CmxCell%20id%3D%221%22%20parent%3D%220%22%2F%3E%3CmxCell%20id%3D%222%22%20value%3D%22interface%22%20style%3D%22text%3Bhtml%3D1%3BstrokeColor%3Dnone%3BfillColor%3Dnone%3Balign%3Dcenter%3BverticalAlign%3Dmiddle%3BwhiteSpace%3Dwrap%3Brounded%3D0%3B%22%20vertex%3D%221%22%20parent%3D%221%22%3E%3CmxGeometry%20x%3D%22-190%22%20y%3D%22-20%22%20width%3D%2260%22%20height%3D%2230%22%20as%3D%22geometry%22%2F%3E%3C%2FmxCell%3E%3C%2Froot%3E%3C%2FmxGraphModel%3E&lt;/span&gt;" style="text;html=1;strokeColor=none;fillColor=none;align=center;verticalAlign=middle;whiteSpace=wrap;rounded=0;" vertex="1" parent="1">
          <mxGeometry x="-730" y="-100" width="60" height="30" as="geometry" />
        </mxCell>
        <mxCell id="B2iAS1njUcuaEuBR_V0X-8" value="" style="shape=folder;fontStyle=1;spacingTop=10;tabWidth=140;tabHeight=30;tabPosition=left;html=1;" vertex="1" parent="1">
          <mxGeometry x="-700" y="340" width="340" height="180" as="geometry" />
        </mxCell>
        <mxCell id="B2iAS1njUcuaEuBR_V0X-9" value="dto" style="text;html=1;strokeColor=none;fillColor=none;align=center;verticalAlign=middle;whiteSpace=wrap;rounded=0;" vertex="1" parent="1">
          <mxGeometry x="-692.5" y="335" width="60" height="30" as="geometry" />
        </mxCell>
        <mxCell id="B2iAS1njUcuaEuBR_V0X-10" value="" style="shape=folder;fontStyle=1;spacingTop=10;tabWidth=140;tabHeight=30;tabPosition=left;html=1;" vertex="1" parent="1">
          <mxGeometry x="271.5" y="580" width="340" height="180" as="geometry" />
        </mxCell>
        <mxCell id="B2iAS1njUcuaEuBR_V0X-11" value="Dominio" style="text;html=1;strokeColor=none;fillColor=none;align=center;verticalAlign=middle;whiteSpace=wrap;rounded=0;" vertex="1" parent="1">
          <mxGeometry x="295" y="580" width="60" height="30" as="geometry" />
        </mxCell>
        <mxCell id="B2iAS1njUcuaEuBR_V0X-14" value="infrastructure" style="text;html=1;strokeColor=none;fillColor=none;align=center;verticalAlign=middle;whiteSpace=wrap;rounded=0;" vertex="1" parent="1">
          <mxGeometry x="283" y="-140" width="60" height="30" as="geometry" />
        </mxCell>
        <mxCell id="B2iAS1njUcuaEuBR_V0X-17" value="" style="shape=folder;fontStyle=1;spacingTop=10;tabWidth=140;tabHeight=30;tabPosition=left;html=1;" vertex="1" parent="1">
          <mxGeometry x="-230" y="-80" width="180" height="270" as="geometry" />
        </mxCell>
        <mxCell id="B2iAS1njUcuaEuBR_V0X-18" value="" style="shape=folder;fontStyle=1;spacingTop=10;tabWidth=140;tabHeight=30;tabPosition=left;html=1;" vertex="1" parent="1">
          <mxGeometry x="-210" y="-20" width="140" height="80" as="geometry" />
        </mxCell>
        <mxCell id="B2iAS1njUcuaEuBR_V0X-19" value="" style="shape=folder;fontStyle=1;spacingTop=10;tabWidth=140;tabHeight=30;tabPosition=left;html=1;" vertex="1" parent="1">
          <mxGeometry x="-210" y="90" width="140" height="80" as="geometry" />
        </mxCell>
        <mxCell id="B2iAS1njUcuaEuBR_V0X-20" value="interface" style="text;html=1;strokeColor=none;fillColor=none;align=center;verticalAlign=middle;whiteSpace=wrap;rounded=0;" vertex="1" parent="1">
          <mxGeometry x="-200" y="-20" width="60" height="30" as="geometry" />
        </mxCell>
        <mxCell id="B2iAS1njUcuaEuBR_V0X-21" value="service" style="text;html=1;strokeColor=none;fillColor=none;align=center;verticalAlign=middle;whiteSpace=wrap;rounded=0;" vertex="1" parent="1">
          <mxGeometry x="-220" y="-80" width="60" height="30" as="geometry" />
        </mxCell>
        <mxCell id="B2iAS1njUcuaEuBR_V0X-22" value="implementation" style="text;html=1;strokeColor=none;fillColor=none;align=center;verticalAlign=middle;whiteSpace=wrap;rounded=0;" vertex="1" parent="1">
          <mxGeometry x="-200" y="90" width="60" height="30" as="geometry" />
        </mxCell>
        <mxCell id="B2iAS1njUcuaEuBR_V0X-23" value="controller&lt;span style=&quot;color: rgba(0, 0, 0, 0); font-family: monospace; font-size: 0px; text-align: start;&quot;&gt;%3CmxGraphModel%3E%3Croot%3E%3CmxCell%20id%3D%220%22%2F%3E%3CmxCell%20id%3D%221%22%20parent%3D%220%22%2F%3E%3CmxCell%20id%3D%222%22%20value%3D%22interface%22%20style%3D%22text%3Bhtml%3D1%3BstrokeColor%3Dnone%3BfillColor%3Dnone%3Balign%3Dcenter%3BverticalAlign%3Dmiddle%3BwhiteSpace%3Dwrap%3Brounded%3D0%3B%22%20vertex%3D%221%22%20parent%3D%221%22%3E%3CmxGeometry%20x%3D%22-190%22%20y%3D%22-20%22%20width%3D%2260%22%20height%3D%2230%22%20as%3D%22geometry%22%2F%3E%3C%2FmxCell%3E%3C%2Froot%3E%3C%2FmxGraphModel%3E&lt;/span&gt;" style="text;html=1;strokeColor=none;fillColor=none;align=center;verticalAlign=middle;whiteSpace=wrap;rounded=0;" vertex="1" parent="1">
          <mxGeometry x="-730" y="120" width="60" height="30" as="geometry" />
        </mxCell>
        <mxCell id="B2iAS1njUcuaEuBR_V0X-24" value="" style="shape=folder;fontStyle=1;spacingTop=10;tabWidth=140;tabHeight=30;tabPosition=left;html=1;" vertex="1" parent="1">
          <mxGeometry x="-180" y="550" width="350" height="260" as="geometry" />
        </mxCell>
        <mxCell id="B2iAS1njUcuaEuBR_V0X-25" value="Cross Cuitting" style="text;html=1;strokeColor=none;fillColor=none;align=center;verticalAlign=middle;whiteSpace=wrap;rounded=0;" vertex="1" parent="1">
          <mxGeometry x="-150" y="550" width="80" height="30" as="geometry" />
        </mxCell>
        <mxCell id="B2iAS1njUcuaEuBR_V0X-26" style="edgeStyle=orthogonalEdgeStyle;rounded=0;orthogonalLoop=1;jettySize=auto;html=1;exitX=0.5;exitY=0;exitDx=0;exitDy=0;entryX=0.25;entryY=0;entryDx=0;entryDy=0;" edge="1" parent="1" source="FZhuZUUJ5nNlcM6EinAX-23" target="FZhuZUUJ5nNlcM6EinAX-23">
          <mxGeometry relative="1" as="geometry" />
        </mxCell>
        <mxCell id="B2iAS1njUcuaEuBR_V0X-27" value="" style="shape=folder;fontStyle=1;spacingTop=10;tabWidth=140;tabHeight=30;tabPosition=left;html=1;" vertex="1" parent="1">
          <mxGeometry x="443" y="325" width="340" height="180" as="geometry" />
        </mxCell>
        <mxCell id="B2iAS1njUcuaEuBR_V0X-28" value="entity" style="text;html=1;strokeColor=none;fillColor=none;align=center;verticalAlign=middle;whiteSpace=wrap;rounded=0;" vertex="1" parent="1">
          <mxGeometry x="450.5" y="320" width="60" height="30" as="geometry" />
        </mxCell>
        <mxCell id="B2iAS1njUcuaEuBR_V0X-34" value="" style="shape=folder;fontStyle=1;spacingTop=10;tabWidth=140;tabHeight=30;tabPosition=left;html=1;" vertex="1" parent="1">
          <mxGeometry x="-37" y="-80" width="180" height="270" as="geometry" />
        </mxCell>
        <mxCell id="B2iAS1njUcuaEuBR_V0X-35" value="use case" style="text;html=1;strokeColor=none;fillColor=none;align=center;verticalAlign=middle;whiteSpace=wrap;rounded=0;" vertex="1" parent="1">
          <mxGeometry x="-37" y="-80" width="60" height="30" as="geometry" />
        </mxCell>
        <mxCell id="B2iAS1njUcuaEuBR_V0X-36" value="" style="shape=folder;fontStyle=1;spacingTop=10;tabWidth=140;tabHeight=30;tabPosition=left;html=1;" vertex="1" parent="1">
          <mxGeometry x="-10" y="-30" width="140" height="80" as="geometry" />
        </mxCell>
        <mxCell id="B2iAS1njUcuaEuBR_V0X-37" value="" style="shape=folder;fontStyle=1;spacingTop=10;tabWidth=140;tabHeight=30;tabPosition=left;html=1;" vertex="1" parent="1">
          <mxGeometry x="-10" y="80" width="140" height="80" as="geometry" />
        </mxCell>
        <mxCell id="B2iAS1njUcuaEuBR_V0X-38" value="interface" style="text;html=1;strokeColor=none;fillColor=none;align=center;verticalAlign=middle;whiteSpace=wrap;rounded=0;" vertex="1" parent="1">
          <mxGeometry y="-30" width="60" height="30" as="geometry" />
        </mxCell>
        <mxCell id="B2iAS1njUcuaEuBR_V0X-39" value="implementation" style="text;html=1;strokeColor=none;fillColor=none;align=center;verticalAlign=middle;whiteSpace=wrap;rounded=0;" vertex="1" parent="1">
          <mxGeometry y="80" width="60" height="30" as="geometry" />
        </mxCell>
        <mxCell id="B2iAS1njUcuaEuBR_V0X-44" value="" style="shape=folder;fontStyle=1;spacingTop=10;tabWidth=140;tabHeight=30;tabPosition=left;html=1;" vertex="1" parent="1">
          <mxGeometry x="283" y="-75" width="317" height="140" as="geometry" />
        </mxCell>
        <mxCell id="B2iAS1njUcuaEuBR_V0X-45" value="" style="shape=folder;fontStyle=1;spacingTop=10;tabWidth=140;tabHeight=30;tabPosition=left;html=1;" vertex="1" parent="1">
          <mxGeometry x="298" y="-30" width="140" height="80" as="geometry" />
        </mxCell>
        <mxCell id="B2iAS1njUcuaEuBR_V0X-46" value="interface" style="text;html=1;strokeColor=none;fillColor=none;align=center;verticalAlign=middle;whiteSpace=wrap;rounded=0;" vertex="1" parent="1">
          <mxGeometry x="308" y="-30" width="60" height="30" as="geometry" />
        </mxCell>
        <mxCell id="B2iAS1njUcuaEuBR_V0X-47" value="" style="shape=folder;fontStyle=1;spacingTop=10;tabWidth=140;tabHeight=30;tabPosition=left;html=1;" vertex="1" parent="1">
          <mxGeometry x="450.5" y="-35" width="147" height="90" as="geometry" />
        </mxCell>
        <mxCell id="B2iAS1njUcuaEuBR_V0X-48" value="No-SQL" style="text;html=1;strokeColor=none;fillColor=none;align=center;verticalAlign=middle;whiteSpace=wrap;rounded=0;" vertex="1" parent="1">
          <mxGeometry x="480.5" y="-35" width="60" height="30" as="geometry" />
        </mxCell>
        <mxCell id="B2iAS1njUcuaEuBR_V0X-49" value="Data" style="text;html=1;strokeColor=none;fillColor=none;align=center;verticalAlign=middle;whiteSpace=wrap;rounded=0;" vertex="1" parent="1">
          <mxGeometry x="283" y="-75" width="60" height="30" as="geometry" />
        </mxCell>
        <mxCell id="B2iAS1njUcuaEuBR_V0X-50" value="" style="shape=folder;fontStyle=1;spacingTop=10;tabWidth=140;tabHeight=30;tabPosition=left;html=1;" vertex="1" parent="1">
          <mxGeometry x="-75" y="710" width="140" height="80" as="geometry" />
        </mxCell>
        <mxCell id="B2iAS1njUcuaEuBR_V0X-51" value="security" style="text;html=1;strokeColor=none;fillColor=none;align=center;verticalAlign=middle;whiteSpace=wrap;rounded=0;" vertex="1" parent="1">
          <mxGeometry x="-65" y="710" width="60" height="30" as="geometry" />
        </mxCell>
        <mxCell id="B2iAS1njUcuaEuBR_V0X-52" value="" style="shape=folder;fontStyle=1;spacingTop=10;tabWidth=140;tabHeight=30;tabPosition=left;html=1;" vertex="1" parent="1">
          <mxGeometry x="10" y="620" width="140" height="80" as="geometry" />
        </mxCell>
        <mxCell id="B2iAS1njUcuaEuBR_V0X-53" value="implementation" style="text;html=1;strokeColor=none;fillColor=none;align=center;verticalAlign=middle;whiteSpace=wrap;rounded=0;" vertex="1" parent="1">
          <mxGeometry x="30" y="620" width="60" height="30" as="geometry" />
        </mxCell>
        <mxCell id="B2iAS1njUcuaEuBR_V0X-54" value="" style="shape=folder;fontStyle=1;spacingTop=10;tabWidth=140;tabHeight=30;tabPosition=left;html=1;" vertex="1" parent="1">
          <mxGeometry x="-170" y="620" width="140" height="80" as="geometry" />
        </mxCell>
        <mxCell id="B2iAS1njUcuaEuBR_V0X-55" value="interface" style="text;html=1;strokeColor=none;fillColor=none;align=center;verticalAlign=middle;whiteSpace=wrap;rounded=0;" vertex="1" parent="1">
          <mxGeometry x="-150" y="620" width="60" height="30" as="geometry" />
        </mxCell>
        <mxCell id="B2iAS1njUcuaEuBR_V0X-56" value="" style="shape=folder;fontStyle=1;spacingTop=10;tabWidth=140;tabHeight=30;tabPosition=left;html=1;" vertex="1" parent="1">
          <mxGeometry x="-240" y="250" width="180" height="130" as="geometry" />
        </mxCell>
        <mxCell id="B2iAS1njUcuaEuBR_V0X-57" value="" style="shape=folder;fontStyle=1;spacingTop=10;tabWidth=140;tabHeight=30;tabPosition=left;html=1;" vertex="1" parent="1">
          <mxGeometry y="250" width="180" height="130" as="geometry" />
        </mxCell>
        <mxCell id="B2iAS1njUcuaEuBR_V0X-58" value="dtoassembler" style="text;html=1;strokeColor=none;fillColor=none;align=center;verticalAlign=middle;whiteSpace=wrap;rounded=0;" vertex="1" parent="1">
          <mxGeometry x="-230" y="250" width="80" height="30" as="geometry" />
        </mxCell>
        <mxCell id="B2iAS1njUcuaEuBR_V0X-59" value="entityassembler" style="text;html=1;strokeColor=none;fillColor=none;align=center;verticalAlign=middle;whiteSpace=wrap;rounded=0;" vertex="1" parent="1">
          <mxGeometry x="10" y="250" width="87" height="30" as="geometry" />
        </mxCell>
      </root>
    </mxGraphModel>
  </diagram>
</mxfile>
